<svg width="277" height="39" viewBox="0 0 277 39" fill="none" xmlns="http://www.w3.org/2000/svg">
<path d="M53.7042 32.1672C52.5656 32.1672 51.5365 31.9592 50.6169 31.5432C49.6972 31.1052 48.909 30.4921 48.2521 29.7039C47.5952 28.8937 47.0916 27.9193 46.7412 26.7807C46.3909 25.6202 46.2157 24.3174 46.2157 22.8723C46.2157 21.5366 46.3909 20.3104 46.7412 19.1937C47.1135 18.0551 47.628 17.0807 48.2849 16.2705C48.9418 15.4385 49.7301 14.7925 50.6497 14.3327C51.5912 13.8729 52.6313 13.643 53.7699 13.643C54.9742 13.643 55.9924 13.9057 56.8244 14.4313C57.6565 14.9349 58.3681 15.6465 58.9593 16.5661H59.025C58.9812 16.0187 58.9484 15.3947 58.9265 14.694C58.9046 13.9933 58.8936 13.2708 58.8936 12.5263V7.17265H64.0502V31.6089H59.0907V29.047H59.025C58.5214 30.1199 57.7988 30.9082 56.8573 31.4118C55.9376 31.9154 54.8866 32.1672 53.7042 32.1672ZM55.0837 28.0288C56.3318 28.0288 57.3062 27.5581 58.0068 26.6165C58.7075 25.6531 59.0579 24.405 59.0579 22.8723C59.0579 22.1059 58.9703 21.3943 58.7951 20.7374C58.6418 20.0805 58.401 19.5221 58.0725 19.0623C57.7441 18.5806 57.3281 18.2084 56.8244 17.9456C56.3427 17.6828 55.7734 17.5515 55.1165 17.5515C53.8903 17.5515 52.9707 18.0441 52.3576 19.0295C51.7664 19.9929 51.4708 21.2629 51.4708 22.8394C51.4708 24.4159 51.7664 25.675 52.3576 26.6165C52.9707 27.5581 53.8794 28.0288 55.0837 28.0288ZM78.6683 31.6089C78.5369 31.4118 78.4165 31.1381 78.307 30.7877C78.1975 30.4155 78.1209 29.9776 78.0771 29.474H78.0114C77.4421 30.2841 76.7523 30.9191 75.9422 31.3789C75.1539 31.8388 74.081 32.0687 72.7234 32.0687C71.8695 32.0687 71.0703 31.9482 70.3258 31.7074C69.6032 31.4884 68.9682 31.16 68.4208 30.7221C67.8953 30.2841 67.4793 29.7367 67.1727 29.0798C66.8881 28.4011 66.7458 27.6347 66.7458 26.7807C66.7458 25.8173 66.9209 25.0181 67.2713 24.3831C67.6435 23.7481 68.1362 23.2335 68.7493 22.8394C69.3624 22.4453 70.0849 22.1497 70.917 21.9526C71.749 21.7337 72.6468 21.5694 73.6102 21.4599C75.1649 21.241 76.2816 20.9782 76.9604 20.6717C77.661 20.3651 78.0114 19.8834 78.0114 19.2265C78.0114 18.5915 77.8034 18.0879 77.3873 17.7157C76.9713 17.3216 76.3144 17.1245 75.4167 17.1245C74.4313 17.1245 73.6869 17.3325 73.1832 17.7485C72.7015 18.1646 72.4278 18.7229 72.3621 19.4236H67.5997C67.6216 18.6791 67.7968 17.9565 68.1252 17.2559C68.4537 16.5552 68.9354 15.9421 69.5704 15.4166C70.2054 14.8692 71.0046 14.4422 71.968 14.1357C72.9314 13.8072 74.0591 13.643 75.351 13.643C76.4677 13.643 77.4311 13.7306 78.2413 13.9057C79.0514 14.059 79.7631 14.3218 80.3762 14.694C81.2958 15.2195 81.9636 15.9311 82.3797 16.8289C82.8176 17.7047 83.0366 18.7339 83.0366 19.9163V28.8828C83.0366 30.2184 83.2555 31.0286 83.6934 31.3133V31.6089H78.6683ZM74.3328 28.6857C75.4933 28.6857 76.4129 28.3682 77.0917 27.7332C77.7924 27.0982 78.1427 26.299 78.1427 25.3356V23.0693C77.7705 23.3102 77.3107 23.5072 76.7633 23.6605C76.2378 23.7919 75.6904 23.9233 75.1211 24.0547C73.9825 24.2955 73.1395 24.5911 72.592 24.9414C72.0446 25.2918 71.7709 25.8501 71.7709 26.6165C71.7709 27.3829 72.0227 27.9193 72.5264 28.2259C73.03 28.5324 73.6321 28.6857 74.3328 28.6857ZM93.7792 32.1672C92.5093 32.1672 91.3706 32.0249 90.3634 31.7402C89.3562 31.4556 88.4913 31.0505 87.7687 30.525C87.068 29.9995 86.5097 29.3754 86.0937 28.6529C85.6995 27.9084 85.4696 27.0982 85.4039 26.2224H90.2649C90.4182 27.0544 90.7904 27.6894 91.3816 28.1274C91.9947 28.5653 92.8049 28.7842 93.8121 28.7842C94.7317 28.7842 95.4433 28.6091 95.947 28.2587C96.4506 27.9084 96.7024 27.4157 96.7024 26.7807C96.7024 26.3866 96.582 26.0691 96.3411 25.8282C96.1002 25.5874 95.7718 25.3903 95.3558 25.237C94.9397 25.0838 94.458 24.9633 93.9106 24.8758C93.3851 24.7663 92.8158 24.6568 92.2027 24.5473C91.4144 24.394 90.6481 24.2189 89.9036 24.0218C89.1591 23.8247 88.4913 23.5291 87.9001 23.135C87.3089 22.7409 86.8272 22.2263 86.4549 21.5913C86.1046 20.9563 85.9294 20.1243 85.9294 19.0952C85.9294 18.1974 86.1155 17.4091 86.4878 16.7304C86.8819 16.0516 87.4074 15.4823 88.0643 15.0225C88.7212 14.5626 89.4985 14.2232 90.3963 14.0043C91.294 13.7634 92.2574 13.643 93.2866 13.643C95.7171 13.643 97.5563 14.1247 98.8044 15.0881C100.053 16.0297 100.797 17.2668 101.038 18.7996H96.2426C95.9141 17.5515 94.9288 16.9274 93.2866 16.9274C92.4983 16.9274 91.8633 17.0807 91.3816 17.3872C90.9218 17.6938 90.6919 18.1317 90.6919 18.701C90.6919 19.0295 90.8013 19.3032 91.0203 19.5221C91.2393 19.7192 91.5458 19.8834 91.9399 20.0148C92.3341 20.1462 92.7939 20.2557 93.3194 20.3432C93.8449 20.4308 94.4033 20.5294 94.9945 20.6388C95.7827 20.7702 96.571 20.9454 97.3593 21.1643C98.1475 21.3614 98.8592 21.668 99.4942 22.084C100.129 22.5 100.644 23.0584 101.038 23.7591C101.454 24.4378 101.662 25.3246 101.662 26.4194C101.662 27.361 101.465 28.193 101.071 28.9156C100.677 29.6382 100.129 30.2403 99.4285 30.7221C98.7278 31.2038 97.8957 31.5651 96.9323 31.8059C95.9689 32.0468 94.9178 32.1672 93.7792 32.1672ZM109.382 13.9057C109.382 13.9495 109.382 14.059 109.382 14.2342C109.382 14.4094 109.382 14.6283 109.382 14.8911C109.382 15.1538 109.371 15.4385 109.35 15.745C109.35 16.0516 109.35 16.3472 109.35 16.6318H109.448C109.974 15.6903 110.674 14.9568 111.55 14.4313C112.426 13.9057 113.477 13.643 114.703 13.643C116.63 13.643 118.119 14.2342 119.17 15.4166C120.243 16.5771 120.779 18.1427 120.779 20.1133V31.6089H115.656V21.0987C115.656 20.1352 115.404 19.3689 114.9 18.7996C114.418 18.2084 113.696 17.9128 112.732 17.9128C111.725 17.9128 110.915 18.274 110.302 18.9966C109.689 19.7192 109.382 20.6388 109.382 21.7555V31.6089H104.226V7.17265H109.382V13.9057ZM123.785 26.2224H129.237V31.6089H123.785V26.2224ZM137.544 13.9057C137.544 13.9495 137.544 14.059 137.544 14.2342C137.544 14.4094 137.544 14.6283 137.544 14.8911C137.544 15.1538 137.533 15.4385 137.511 15.745C137.511 16.0516 137.511 16.3472 137.511 16.6318H137.61C138.135 15.6903 138.836 14.9568 139.712 14.4313C140.587 13.9057 141.638 13.643 142.865 13.643C144.791 13.643 146.28 14.2342 147.331 15.4166C148.404 16.5771 148.941 18.1427 148.941 20.1133V31.6089H143.817V21.0987C143.817 20.1352 143.565 19.3689 143.062 18.7996C142.58 18.2084 141.857 17.9128 140.894 17.9128C139.887 17.9128 139.077 18.274 138.463 18.9966C137.85 19.7192 137.544 20.6388 137.544 21.7555V31.6089H132.387V7.17265H137.544V13.9057ZM152.177 7.17265H157.399V11.6723H152.177V7.17265ZM152.209 14.1357H157.366V31.6089H152.209V14.1357ZM167.441 32.1672C166.302 32.1672 165.273 31.9592 164.353 31.5432C163.434 31.1052 162.645 30.4921 161.989 29.7039C161.332 28.8937 160.828 27.9193 160.478 26.7807C160.127 25.6202 159.952 24.3174 159.952 22.8723C159.952 21.5366 160.127 20.3104 160.478 19.1937C160.85 18.0551 161.364 17.0807 162.021 16.2705C162.678 15.4385 163.467 14.7925 164.386 14.3327C165.328 13.8729 166.368 13.643 167.506 13.643C168.711 13.643 169.729 13.9057 170.561 14.4313C171.393 14.9349 172.105 15.6465 172.696 16.5661H172.761C172.718 16.0187 172.685 15.3947 172.663 14.694C172.641 13.9933 172.63 13.2708 172.63 12.5263V7.17265H177.787V31.6089H172.827V29.047H172.761C172.258 30.1199 171.535 30.9082 170.594 31.4118C169.674 31.9154 168.623 32.1672 167.441 32.1672ZM168.82 28.0288C170.068 28.0288 171.043 27.5581 171.743 26.6165C172.444 25.6531 172.794 24.405 172.794 22.8723C172.794 22.1059 172.707 21.3943 172.532 20.7374C172.378 20.0805 172.137 19.5221 171.809 19.0623C171.481 18.5806 171.065 18.2084 170.561 17.9456C170.079 17.6828 169.51 17.5515 168.853 17.5515C167.627 17.5515 166.707 18.0441 166.094 19.0295C165.503 19.9929 165.207 21.2629 165.207 22.8394C165.207 24.4159 165.503 25.675 166.094 26.6165C166.707 27.5581 167.616 28.0288 168.82 28.0288ZM187.872 32.1672C186.734 32.1672 185.704 31.9592 184.785 31.5432C183.865 31.1052 183.077 30.4921 182.42 29.7039C181.763 28.8937 181.26 27.9193 180.909 26.7807C180.559 25.6202 180.384 24.3174 180.384 22.8723C180.384 21.5366 180.559 20.3104 180.909 19.1937C181.281 18.0551 181.796 17.0807 182.453 16.2705C183.11 15.4385 183.898 14.7925 184.818 14.3327C185.759 13.8729 186.799 13.643 187.938 13.643C189.142 13.643 190.16 13.9057 190.992 14.4313C191.824 14.9349 192.536 15.6465 193.127 16.5661H193.193C193.149 16.0187 193.116 15.3947 193.094 14.694C193.073 13.9933 193.062 13.2708 193.062 12.5263V7.17265H198.218V31.6089H193.259V29.047H193.193C192.689 30.1199 191.967 30.9082 191.025 31.4118C190.106 31.9154 189.055 32.1672 187.872 32.1672ZM189.252 28.0288C190.5 28.0288 191.474 27.5581 192.175 26.6165C192.875 25.6531 193.226 24.405 193.226 22.8723C193.226 22.1059 193.138 21.3943 192.963 20.7374C192.81 20.0805 192.569 19.5221 192.24 19.0623C191.912 18.5806 191.496 18.2084 190.992 17.9456C190.511 17.6828 189.941 17.5515 189.284 17.5515C188.058 17.5515 187.139 18.0441 186.526 19.0295C185.934 19.9929 185.639 21.2629 185.639 22.8394C185.639 24.4159 185.934 25.675 186.526 26.6165C187.139 27.5581 188.047 28.0288 189.252 28.0288ZM210.044 32.1344C208.621 32.1344 207.34 31.9045 206.202 31.4446C205.063 30.9629 204.089 30.306 203.278 29.474C202.49 28.6419 201.877 27.6675 201.439 26.5508C201.023 25.4341 200.815 24.2189 200.815 22.9051C200.815 21.5913 201.034 20.3761 201.472 19.2594C201.91 18.1208 202.523 17.1354 203.311 16.3034C204.1 15.4713 205.041 14.8254 206.136 14.3656C207.231 13.8838 208.446 13.643 209.782 13.643C211.03 13.643 212.146 13.8401 213.132 14.2342C214.139 14.6283 215.026 15.1757 215.792 15.8764C216.778 16.8398 217.5 18.0332 217.96 19.4564C218.42 20.8797 218.639 22.4562 218.617 24.186H205.873C206.048 25.4998 206.486 26.5289 207.187 27.2734C207.888 28.0179 208.862 28.3901 210.11 28.3901C210.92 28.3901 211.577 28.2478 212.081 27.9631C212.606 27.6566 213.011 27.2296 213.296 26.6822H218.288C218.069 27.4486 217.719 28.1711 217.237 28.8499C216.778 29.5068 216.197 30.0871 215.497 30.5907C214.818 31.0724 214.019 31.4446 213.099 31.7074C212.179 31.992 211.161 32.1344 210.044 32.1344ZM209.782 17.2887C208.599 17.2887 207.702 17.6391 207.088 18.3397C206.475 19.0404 206.081 19.9929 205.906 21.1972H213.362C213.274 19.971 212.913 19.0185 212.278 18.3397C211.643 17.6391 210.811 17.2887 209.782 17.2887ZM220.939 26.2224H226.391V31.6089H220.939V26.2224ZM229.541 14.1357H234.501V16.8617H234.599C235.168 15.8107 235.869 15.0115 236.701 14.4641C237.555 13.9167 238.606 13.643 239.854 13.643C242.153 13.643 243.752 14.7487 244.65 16.9603H244.715C245.438 15.7779 246.259 14.9349 247.179 14.4313C248.12 13.9057 249.149 13.643 250.266 13.643C252.215 13.643 253.682 14.2342 254.667 15.4166C255.652 16.5771 256.145 18.1317 256.145 20.0805V31.6089H251.021V20.9344C251.021 19.971 250.791 19.2265 250.332 18.701C249.894 18.1536 249.259 17.8799 248.427 17.8799C247.507 17.8799 246.774 18.2303 246.226 18.9309C245.701 19.6316 245.438 20.5403 245.438 21.657V31.6089H240.281V20.9344C240.281 19.971 240.062 19.2265 239.624 18.701C239.208 18.1536 238.573 17.8799 237.719 17.8799C236.8 17.8799 236.066 18.2303 235.519 18.9309C234.971 19.6316 234.698 20.5403 234.698 21.657V31.6089H229.541V14.1357ZM267.843 32.1344C266.42 32.1344 265.139 31.9045 264 31.4446C262.861 30.9629 261.887 30.306 261.077 29.474C260.289 28.6419 259.676 27.6675 259.238 26.5508C258.822 25.4341 258.614 24.2189 258.614 22.9051C258.614 21.5913 258.833 20.3761 259.27 19.2594C259.708 18.1208 260.321 17.1354 261.11 16.3034C261.898 15.4713 262.84 14.8254 263.934 14.3656C265.029 13.8838 266.244 13.643 267.58 13.643C268.828 13.643 269.945 13.8401 270.93 14.2342C271.937 14.6283 272.824 15.1757 273.591 15.8764C274.576 16.8398 275.298 18.0332 275.758 19.4564C276.218 20.8797 276.437 22.4562 276.415 24.186H263.672C263.847 25.4998 264.285 26.5289 264.985 27.2734C265.686 28.0179 266.66 28.3901 267.908 28.3901C268.719 28.3901 269.376 28.2478 269.879 27.9631C270.405 27.6566 270.81 27.2296 271.094 26.6822H276.087C275.868 27.4486 275.517 28.1711 275.036 28.8499C274.576 29.5068 273.996 30.0871 273.295 30.5907C272.616 31.0724 271.817 31.4446 270.897 31.7074C269.978 31.992 268.96 32.1344 267.843 32.1344ZM267.58 17.2887C266.398 17.2887 265.5 17.6391 264.887 18.3397C264.274 19.0404 263.88 19.9929 263.704 21.1972H271.16C271.073 19.971 270.711 19.0185 270.076 18.3397C269.441 17.6391 268.609 17.2887 267.58 17.2887Z" fill="#221E1F"/>
<rect width="38.422" height="38.422" fill="#FEF208"/>
<rect x="5.85867" y="27.9309" width="26.7046" height="4.90493" fill="#221E1F"/>
</svg>
